<svg width="763" height="285" viewBox="0 0 763 285" fill="none" xmlns="http://www.w3.org/2000/svg">
<g opacity="0.3" filter="url(#filter0_f_169_6)">
<ellipse cx="365.5" cy="142.5" rx="309.5" ry="86.5" fill="#402879"/>
<path d="M674.5 142.5C674.5 154.184 666.022 165.431 650.402 175.753C634.802 186.061 612.195 195.363 584.215 203.183C528.262 218.821 450.934 228.5 365.5 228.5C280.066 228.5 202.738 218.821 146.785 203.183C118.805 195.363 96.1979 186.061 80.5977 175.753C64.9777 165.431 56.5 154.184 56.5 142.5C56.5 130.816 64.9777 119.569 80.5977 109.247C96.1979 98.9393 118.805 89.6368 146.785 81.8168C202.738 66.1788 280.066 56.5 365.5 56.5C450.934 56.5 528.262 66.1788 584.215 81.8168C612.195 89.6368 634.802 98.9393 650.402 109.247C666.022 119.569 674.5 130.816 674.5 142.5Z" stroke="black"/>
</g>
<g opacity="0.3" filter="url(#filter1_f_169_6)">
<ellipse cx="397.5" cy="142.5" rx="309.5" ry="86.5" fill="#402879"/>
<path d="M706.5 142.5C706.5 154.184 698.022 165.431 682.402 175.753C666.802 186.061 644.195 195.363 616.215 203.183C560.262 218.821 482.934 228.5 397.5 228.5C312.066 228.5 234.738 218.821 178.785 203.183C150.805 195.363 128.198 186.061 112.598 175.753C96.9777 165.431 88.5 154.184 88.5 142.5C88.5 130.816 96.9777 119.569 112.598 109.247C128.198 98.9393 150.805 89.6368 178.785 81.8168C234.738 66.1788 312.066 56.5 397.5 56.5C482.934 56.5 560.262 66.1788 616.215 81.8168C644.195 89.6368 666.802 98.9393 682.402 109.247C698.022 119.569 706.5 130.816 706.5 142.5Z" stroke="black"/>
</g>
<g filter="url(#filter2_dd_169_6)">
<path d="M183.953 126.906L181.188 128.734C179.5 126.234 177.297 124.266 174.578 122.828C171.891 121.359 168.969 120.625 165.812 120.625C160.688 120.625 156.312 122.438 152.688 126.062C149.062 129.688 147.25 134.062 147.25 139.188C147.25 144.312 149.062 148.688 152.688 152.312C156.312 155.938 160.688 157.75 165.812 157.75C168.969 157.75 171.891 157.016 174.578 155.547C177.297 154.078 179.5 152.094 181.188 149.594L183.906 151.562C181.906 154.5 179.312 156.828 176.125 158.547C172.938 160.266 169.5 161.125 165.812 161.125C162.844 161.125 160 160.547 157.281 159.391C154.594 158.234 152.266 156.672 150.297 154.703C148.328 152.734 146.766 150.406 145.609 147.719C144.453 145 143.875 142.156 143.875 139.188C143.875 136.219 144.453 133.391 145.609 130.703C146.766 127.984 148.328 125.641 150.297 123.672C152.266 121.703 154.594 120.141 157.281 118.984C160 117.828 162.844 117.25 165.812 117.25C169.531 117.25 172.984 118.125 176.172 119.875C179.359 121.594 181.953 123.938 183.953 126.906ZM189.531 123.062L186.719 124.891C184.406 121.516 181.406 118.844 177.719 116.875C174.062 114.875 170.094 113.875 165.812 113.875C161.219 113.875 156.984 115.016 153.109 117.297C149.234 119.547 146.156 122.609 143.875 126.484C141.625 130.359 140.5 134.594 140.5 139.188C140.5 143.781 141.625 148.016 143.875 151.891C146.156 155.766 149.234 158.844 153.109 161.125C156.984 163.375 161.219 164.5 165.812 164.5C170.094 164.5 174.078 163.5 177.766 161.5C181.453 159.5 184.453 156.797 186.766 153.391L189.531 155.312C186.906 159.188 183.5 162.25 179.312 164.5C175.156 166.75 170.656 167.875 165.812 167.875C160.625 167.875 155.828 166.594 151.422 164.031C147.016 161.469 143.531 157.984 140.969 153.578C138.406 149.172 137.125 144.375 137.125 139.188C137.125 134 138.406 129.203 140.969 124.797C143.531 120.391 147.016 116.906 151.422 114.344C155.828 111.781 160.625 110.5 165.812 110.5C170.656 110.5 175.156 111.625 179.312 113.875C183.5 116.125 186.906 119.188 189.531 123.062ZM195.156 119.312L192.344 121.141C189.406 116.828 185.594 113.422 180.906 110.922C176.25 108.391 171.219 107.125 165.812 107.125C161.469 107.125 157.312 107.969 153.344 109.656C149.375 111.344 145.953 113.625 143.078 116.5C140.234 119.344 137.969 122.75 136.281 126.719C134.594 130.688 133.75 134.844 133.75 139.188C133.75 143.531 134.594 147.688 136.281 151.656C137.969 155.625 140.234 159.047 143.078 161.922C145.953 164.766 149.375 167.031 153.344 168.719C157.312 170.406 161.469 171.25 165.812 171.25C171.25 171.25 176.297 169.984 180.953 167.453C185.609 164.922 189.406 161.5 192.344 157.188L195.062 159.203C191.812 163.953 187.609 167.719 182.453 170.5C177.328 173.25 171.781 174.625 165.812 174.625C159.406 174.625 153.484 173.047 148.047 169.891C142.609 166.703 138.297 162.391 135.109 156.953C131.953 151.516 130.375 145.594 130.375 139.188C130.375 132.781 131.953 126.859 135.109 121.422C138.297 115.984 142.609 111.688 148.047 108.531C153.484 105.344 159.406 103.75 165.812 103.75C171.812 103.75 177.391 105.156 182.547 107.969C187.703 110.75 191.906 114.531 195.156 119.312ZM200.688 115.469L197.875 117.297C194.312 112.078 189.703 107.953 184.047 104.922C178.422 101.891 172.344 100.375 165.812 100.375C160.562 100.375 155.531 101.406 150.719 103.469C145.938 105.5 141.812 108.25 138.344 111.719C134.875 115.188 132.109 119.328 130.047 124.141C128.016 128.922 127 133.938 127 139.188C127 144.438 128.016 149.469 130.047 154.281C132.109 159.062 134.875 163.188 138.344 166.656C141.812 170.125 145.938 172.891 150.719 174.953C155.531 176.984 160.562 178 165.812 178C172.344 178 178.438 176.469 184.094 173.406C189.75 170.344 194.359 166.203 197.922 160.984L200.641 163.047C196.766 168.672 191.766 173.141 185.641 176.453C179.516 179.734 172.906 181.375 165.812 181.375C160.094 181.375 154.625 180.25 149.406 178C144.219 175.781 139.734 172.797 135.953 169.047C132.203 165.266 129.203 160.781 126.953 155.594C124.734 150.375 123.625 144.906 123.625 139.188C123.625 133.469 124.734 128.016 126.953 122.828C129.203 117.609 132.203 113.125 135.953 109.375C139.734 105.594 144.219 102.594 149.406 100.375C154.625 98.125 160.094 97 165.812 97C172.938 97 179.562 98.6562 185.688 101.969C191.812 105.281 196.812 109.781 200.688 115.469ZM234.531 126.062C230.906 129.688 229.094 134.062 229.094 139.188C229.094 144.312 230.906 148.688 234.531 152.312C238.156 155.938 242.531 157.75 247.656 157.75C252.781 157.75 257.156 155.938 260.781 152.312C264.406 148.688 266.219 144.312 266.219 139.188C266.219 134.062 264.406 129.688 260.781 126.062C257.156 122.438 252.781 120.625 247.656 120.625C242.531 120.625 238.156 122.438 234.531 126.062ZM227.453 147.719C226.297 145 225.719 142.156 225.719 139.188C225.719 136.219 226.297 133.391 227.453 130.703C228.609 127.984 230.172 125.641 232.141 123.672C234.109 121.703 236.438 120.141 239.125 118.984C241.844 117.828 244.688 117.25 247.656 117.25C250.625 117.25 253.453 117.828 256.141 118.984C258.859 120.141 261.203 121.703 263.172 123.672C265.141 125.641 266.703 127.984 267.859 130.703C269.016 133.391 269.594 136.219 269.594 139.188C269.594 142.156 269.016 145 267.859 147.719C266.703 150.406 265.141 152.734 263.172 154.703C261.203 156.672 258.859 158.234 256.141 159.391C253.453 160.547 250.625 161.125 247.656 161.125C244.688 161.125 241.844 160.547 239.125 159.391C236.438 158.234 234.109 156.672 232.141 154.703C230.172 152.734 228.609 150.406 227.453 147.719ZM225.719 126.484C223.469 130.359 222.344 134.594 222.344 139.188C222.344 143.781 223.469 148.016 225.719 151.891C228 155.766 231.078 158.844 234.953 161.125C238.828 163.375 243.062 164.5 247.656 164.5C252.25 164.5 256.484 163.375 260.359 161.125C264.234 158.844 267.297 155.766 269.547 151.891C271.828 148.016 272.969 143.781 272.969 139.188C272.969 134.594 271.828 130.359 269.547 126.484C267.297 122.609 264.234 119.547 260.359 117.297C256.484 115.016 252.25 113.875 247.656 113.875C243.062 113.875 238.828 115.016 234.953 117.297C231.078 119.547 228 122.609 225.719 126.484ZM222.812 153.578C220.25 149.172 218.969 144.375 218.969 139.188C218.969 134 220.25 129.203 222.812 124.797C225.375 120.391 228.859 116.906 233.266 114.344C237.672 111.781 242.469 110.5 247.656 110.5C252.844 110.5 257.641 111.781 262.047 114.344C266.453 116.906 269.938 120.391 272.5 124.797C275.062 129.203 276.344 134 276.344 139.188C276.344 144.375 275.062 149.172 272.5 153.578C269.938 157.984 266.453 161.469 262.047 164.031C257.641 166.594 252.844 167.875 247.656 167.875C242.469 167.875 237.672 166.594 233.266 164.031C228.859 161.469 225.375 157.984 222.812 153.578ZM218.125 126.719C216.438 130.688 215.594 134.844 215.594 139.188C215.594 143.531 216.438 147.688 218.125 151.656C219.812 155.625 222.078 159.047 224.922 161.922C227.797 164.766 231.219 167.031 235.188 168.719C239.156 170.406 243.312 171.25 247.656 171.25C252 171.25 256.156 170.406 260.125 168.719C264.094 167.031 267.5 164.766 270.344 161.922C273.219 159.047 275.5 155.625 277.188 151.656C278.875 147.688 279.719 143.531 279.719 139.188C279.719 134.844 278.875 130.688 277.188 126.719C275.5 122.75 273.219 119.344 270.344 116.5C267.5 113.625 264.094 111.344 260.125 109.656C256.156 107.969 252 107.125 247.656 107.125C243.312 107.125 239.156 107.969 235.188 109.656C231.219 111.344 227.797 113.625 224.922 116.5C222.078 119.344 219.812 122.75 218.125 126.719ZM216.953 156.953C213.797 151.516 212.219 145.594 212.219 139.188C212.219 132.781 213.797 126.859 216.953 121.422C220.141 115.984 224.453 111.688 229.891 108.531C235.328 105.344 241.25 103.75 247.656 103.75C254.062 103.75 259.984 105.344 265.422 108.531C270.859 111.688 275.156 115.984 278.312 121.422C281.5 126.859 283.094 132.781 283.094 139.188C283.094 145.594 281.5 151.516 278.312 156.953C275.156 162.391 270.859 166.703 265.422 169.891C259.984 173.047 254.062 174.625 247.656 174.625C241.25 174.625 235.328 173.047 229.891 169.891C224.453 166.703 220.141 162.391 216.953 156.953ZM211.891 124.141C209.859 128.922 208.844 133.938 208.844 139.188C208.844 144.438 209.859 149.469 211.891 154.281C213.953 159.062 216.719 163.188 220.188 166.656C223.656 170.125 227.781 172.891 232.562 174.953C237.375 176.984 242.406 178 247.656 178C252.906 178 257.922 176.984 262.703 174.953C267.516 172.891 271.656 170.125 275.125 166.656C278.594 163.188 281.344 159.062 283.375 154.281C285.438 149.469 286.469 144.438 286.469 139.188C286.469 133.938 285.438 128.922 283.375 124.141C281.344 119.328 278.594 115.188 275.125 111.719C271.656 108.25 267.516 105.5 262.703 103.469C257.922 101.406 252.906 100.375 247.656 100.375C242.406 100.375 237.375 101.406 232.562 103.469C227.781 105.5 223.656 108.25 220.188 111.719C216.719 115.188 213.953 119.328 211.891 124.141ZM208.797 155.594C206.578 150.375 205.469 144.906 205.469 139.188C205.469 133.469 206.578 128.016 208.797 122.828C211.047 117.609 214.047 113.125 217.797 109.375C221.578 105.594 226.062 102.594 231.25 100.375C236.469 98.125 241.938 97 247.656 97C253.375 97 258.828 98.125 264.016 100.375C269.234 102.594 273.719 105.594 277.469 109.375C281.25 113.125 284.25 117.609 286.469 122.828C288.719 128.016 289.844 133.469 289.844 139.188C289.844 144.906 288.719 150.375 286.469 155.594C284.25 160.781 281.25 165.266 277.469 169.047C273.719 172.797 269.234 175.781 264.016 178C258.828 180.25 253.375 181.375 247.656 181.375C241.938 181.375 236.469 180.25 231.25 178C226.062 175.781 221.578 172.797 217.797 169.047C214.047 165.266 211.047 160.781 208.797 155.594ZM351.953 140.641L348.578 135.062V100.375H351.953V140.641ZM358.703 151.703L355.328 146.031V100.375H358.703V151.703ZM365.453 162.906L362.078 157.188V100.375H365.453V162.906ZM317.078 137.734L320.453 143.312V178H317.078V137.734ZM310.328 126.672L313.703 132.344V178H310.328V126.672ZM303.578 115.469L306.953 121.188V178H303.578V115.469ZM304.75 100.375H308.688L356.406 178H352.469L304.75 100.375ZM312.719 100.375H316.703L364.375 178H360.344L312.719 100.375ZM320.641 100.375H324.578L368.828 172.516V100.375H372.203V178C372.203 178 370.875 178 368.219 178L320.641 100.375ZM300.203 105.859V178H296.828V100.375C296.828 100.375 298.172 100.375 300.859 100.375L348.438 178H344.547L300.203 105.859ZM379.609 103.75V100.375H430.234V103.75H379.609ZM379.609 110.5V107.125H430.234V110.5H379.609ZM379.609 117.25V113.875H430.234V117.25H416.734V178H413.359V117.25H409.984V178H406.609V117.25H403.234V178H399.859V117.25H396.484V178H393.109V117.25H379.609ZM471.438 155.219L472.797 151.844H484.328L485.688 155.219H471.438ZM468.812 161.969L470.125 158.594H486.953L488.406 161.969H468.812ZM466.188 168.719L467.5 165.344H489.625L491.031 168.719H466.188ZM438.766 178H435.109L465.812 100.375H469.469L500.125 178H496.516L467.641 104.922L438.766 178ZM468.062 112.938L469.984 117.25L445.984 178H442.375L468.062 112.938ZM471.812 121.844L473.594 126.484L453.297 178H449.641L471.812 121.844ZM475.375 131.125L477.156 135.859L460.516 178H456.906L475.375 131.125ZM521.922 178H518.266L487.609 100.375H491.219L521.922 178ZM483.953 100.375L514.656 178H511.047L480.344 100.375H483.953ZM476.688 100.375L507.391 178H503.734L473.078 100.375H476.688ZM526.328 103.75V100.375H576.953V103.75H526.328ZM526.328 110.5V107.125H576.953V110.5H526.328ZM526.328 117.25V113.875H576.953V117.25H563.453V178H560.078V117.25H556.703V178H553.328V117.25H549.953V178H546.578V117.25H543.203V178H539.828V117.25H526.328ZM611.969 126.062C608.344 129.688 606.531 134.062 606.531 139.188C606.531 144.312 608.344 148.688 611.969 152.312C615.594 155.938 619.969 157.75 625.094 157.75C630.219 157.75 634.594 155.938 638.219 152.312C641.844 148.688 643.656 144.312 643.656 139.188C643.656 134.062 641.844 129.688 638.219 126.062C634.594 122.438 630.219 120.625 625.094 120.625C619.969 120.625 615.594 122.438 611.969 126.062ZM604.891 147.719C603.734 145 603.156 142.156 603.156 139.188C603.156 136.219 603.734 133.391 604.891 130.703C606.047 127.984 607.609 125.641 609.578 123.672C611.547 121.703 613.875 120.141 616.562 118.984C619.281 117.828 622.125 117.25 625.094 117.25C628.062 117.25 630.891 117.828 633.578 118.984C636.297 120.141 638.641 121.703 640.609 123.672C642.578 125.641 644.141 127.984 645.297 130.703C646.453 133.391 647.031 136.219 647.031 139.188C647.031 142.156 646.453 145 645.297 147.719C644.141 150.406 642.578 152.734 640.609 154.703C638.641 156.672 636.297 158.234 633.578 159.391C630.891 160.547 628.062 161.125 625.094 161.125C622.125 161.125 619.281 160.547 616.562 159.391C613.875 158.234 611.547 156.672 609.578 154.703C607.609 152.734 606.047 150.406 604.891 147.719ZM603.156 126.484C600.906 130.359 599.781 134.594 599.781 139.188C599.781 143.781 600.906 148.016 603.156 151.891C605.438 155.766 608.516 158.844 612.391 161.125C616.266 163.375 620.5 164.5 625.094 164.5C629.688 164.5 633.922 163.375 637.797 161.125C641.672 158.844 644.734 155.766 646.984 151.891C649.266 148.016 650.406 143.781 650.406 139.188C650.406 134.594 649.266 130.359 646.984 126.484C644.734 122.609 641.672 119.547 637.797 117.297C633.922 115.016 629.688 113.875 625.094 113.875C620.5 113.875 616.266 115.016 612.391 117.297C608.516 119.547 605.438 122.609 603.156 126.484ZM600.25 153.578C597.688 149.172 596.406 144.375 596.406 139.188C596.406 134 597.688 129.203 600.25 124.797C602.812 120.391 606.297 116.906 610.703 114.344C615.109 111.781 619.906 110.5 625.094 110.5C630.281 110.5 635.078 111.781 639.484 114.344C643.891 116.906 647.375 120.391 649.938 124.797C652.5 129.203 653.781 134 653.781 139.188C653.781 144.375 652.5 149.172 649.938 153.578C647.375 157.984 643.891 161.469 639.484 164.031C635.078 166.594 630.281 167.875 625.094 167.875C619.906 167.875 615.109 166.594 610.703 164.031C606.297 161.469 602.812 157.984 600.25 153.578ZM595.562 126.719C593.875 130.688 593.031 134.844 593.031 139.188C593.031 143.531 593.875 147.688 595.562 151.656C597.25 155.625 599.516 159.047 602.359 161.922C605.234 164.766 608.656 167.031 612.625 168.719C616.594 170.406 620.75 171.25 625.094 171.25C629.438 171.25 633.594 170.406 637.562 168.719C641.531 167.031 644.938 164.766 647.781 161.922C650.656 159.047 652.938 155.625 654.625 151.656C656.312 147.688 657.156 143.531 657.156 139.188C657.156 134.844 656.312 130.688 654.625 126.719C652.938 122.75 650.656 119.344 647.781 116.5C644.938 113.625 641.531 111.344 637.562 109.656C633.594 107.969 629.438 107.125 625.094 107.125C620.75 107.125 616.594 107.969 612.625 109.656C608.656 111.344 605.234 113.625 602.359 116.5C599.516 119.344 597.25 122.75 595.562 126.719ZM594.391 156.953C591.234 151.516 589.656 145.594 589.656 139.188C589.656 132.781 591.234 126.859 594.391 121.422C597.578 115.984 601.891 111.688 607.328 108.531C612.766 105.344 618.688 103.75 625.094 103.75C631.5 103.75 637.422 105.344 642.859 108.531C648.297 111.688 652.594 115.984 655.75 121.422C658.938 126.859 660.531 132.781 660.531 139.188C660.531 145.594 658.938 151.516 655.75 156.953C652.594 162.391 648.297 166.703 642.859 169.891C637.422 173.047 631.5 174.625 625.094 174.625C618.688 174.625 612.766 173.047 607.328 169.891C601.891 166.703 597.578 162.391 594.391 156.953ZM589.328 124.141C587.297 128.922 586.281 133.938 586.281 139.188C586.281 144.438 587.297 149.469 589.328 154.281C591.391 159.062 594.156 163.188 597.625 166.656C601.094 170.125 605.219 172.891 610 174.953C614.812 176.984 619.844 178 625.094 178C630.344 178 635.359 176.984 640.141 174.953C644.953 172.891 649.094 170.125 652.562 166.656C656.031 163.188 658.781 159.062 660.812 154.281C662.875 149.469 663.906 144.438 663.906 139.188C663.906 133.938 662.875 128.922 660.812 124.141C658.781 119.328 656.031 115.188 652.562 111.719C649.094 108.25 644.953 105.5 640.141 103.469C635.359 101.406 630.344 100.375 625.094 100.375C619.844 100.375 614.812 101.406 610 103.469C605.219 105.5 601.094 108.25 597.625 111.719C594.156 115.188 591.391 119.328 589.328 124.141ZM586.234 155.594C584.016 150.375 582.906 144.906 582.906 139.188C582.906 133.469 584.016 128.016 586.234 122.828C588.484 117.609 591.484 113.125 595.234 109.375C599.016 105.594 603.5 102.594 608.688 100.375C613.906 98.125 619.375 97 625.094 97C630.812 97 636.266 98.125 641.453 100.375C646.672 102.594 651.156 105.594 654.906 109.375C658.688 113.125 661.688 117.609 663.906 122.828C666.156 128.016 667.281 133.469 667.281 139.188C667.281 144.906 666.156 150.375 663.906 155.594C661.688 160.781 658.688 165.266 654.906 169.047C651.156 172.797 646.672 175.781 641.453 178C636.266 180.25 630.812 181.375 625.094 181.375C619.375 181.375 613.906 180.25 608.688 178C603.5 175.781 599.016 172.797 595.234 169.047C591.484 165.266 588.484 160.781 586.234 155.594Z" fill="white"/>
</g>
<defs>
<filter id="filter0_f_169_6" x="0" y="0" width="731" height="285" filterUnits="userSpaceOnUse" color-interpolation-filters="sRGB">
<feFlood flood-opacity="0" result="BackgroundImageFix"/>
<feBlend mode="normal" in="SourceGraphic" in2="BackgroundImageFix" result="shape"/>
<feGaussianBlur stdDeviation="28" result="effect1_foregroundBlur_169_6"/>
</filter>
<filter id="filter1_f_169_6" x="32" y="0" width="731" height="285" filterUnits="userSpaceOnUse" color-interpolation-filters="sRGB">
<feFlood flood-opacity="0" result="BackgroundImageFix"/>
<feBlend mode="normal" in="SourceGraphic" in2="BackgroundImageFix" result="shape"/>
<feGaussianBlur stdDeviation="28" result="effect1_foregroundBlur_169_6"/>
</filter>
<filter id="filter2_dd_169_6" x="119.625" y="93" width="551.656" height="92.375" filterUnits="userSpaceOnUse" color-interpolation-filters="sRGB">
<feFlood flood-opacity="0" result="BackgroundImageFix"/>
<feColorMatrix in="SourceAlpha" type="matrix" values="0 0 0 0 0 0 0 0 0 0 0 0 0 0 0 0 0 0 127 0" result="hardAlpha"/>
<feOffset/>
<feGaussianBlur stdDeviation="2"/>
<feComposite in2="hardAlpha" operator="out"/>
<feColorMatrix type="matrix" values="0 0 0 0 0.25098 0 0 0 0 0.156863 0 0 0 0 0.47451 0 0 0 1 0"/>
<feBlend mode="normal" in2="BackgroundImageFix" result="effect1_dropShadow_169_6"/>
<feColorMatrix in="SourceAlpha" type="matrix" values="0 0 0 0 0 0 0 0 0 0 0 0 0 0 0 0 0 0 127 0" result="hardAlpha"/>
<feOffset/>
<feGaussianBlur stdDeviation="2"/>
<feComposite in2="hardAlpha" operator="out"/>
<feColorMatrix type="matrix" values="0 0 0 0 0.12549 0 0 0 0 0.0117647 0 0 0 0 0.145098 0 0 0 1 0"/>
<feBlend mode="normal" in2="effect1_dropShadow_169_6" result="effect2_dropShadow_169_6"/>
<feBlend mode="normal" in="SourceGraphic" in2="effect2_dropShadow_169_6" result="shape"/>
</filter>
</defs>
</svg>
